<?xml version="1.0" standalone="no"?>
<!DOCTYPE svg PUBLIC "-//W3C//DTD SVG 20010904//EN"
 "http://www.w3.org/TR/2001/REC-SVG-20010904/DTD/svg10.dtd">
<svg version="1.0" xmlns="http://www.w3.org/2000/svg"
 width="1080.000000pt" height="1080.000000pt" viewBox="0 0 1080.000000 1080.000000"
 preserveAspectRatio="xMidYMid meet">

<g transform="translate(0.000000,1080.000000) scale(0.100000,-0.100000)"
fill="#645874" stroke="none">
<path d="M80 9910 c0 -5 5 -10 10 -10 6 0 10 5 10 10 0 6 -4 10 -10 10 -5 0
-10 -4 -10 -10z"/>
<path d="M6094 7132 c-4 -15 -12 -21 -21 -17 -35 13 -285 17 -393 6 -379 -38
-707 -180 -923 -398 -92 -93 -137 -154 -183 -249 -51 -106 -74 -209 -74 -328
0 -123 18 -203 70 -314 121 -257 372 -460 709 -572 216 -72 294 -84 566 -84
201 -1 242 -3 252 -16 10 -13 12 -13 19 3 4 10 16 23 28 27 21 9 21 9 -1 9
l-23 1 0 945 0 945 38 1 37 1 -33 8 c-37 9 -35 7 -50 35 -11 20 -12 19 -18 -3z
m-221 -19 c-13 -2 -33 -2 -45 0 -13 2 -3 4 22 4 25 0 35 -2 23 -4z m-165 -10
c-10 -2 -28 -2 -40 0 -13 2 -5 4 17 4 22 1 32 -1 23 -4z m320 0 c-10 -2 -28
-2 -40 0 -13 2 -5 4 17 4 22 1 32 -1 23 -4z m-415 -10 c-7 -2 -21 -2 -30 0
-10 3 -4 5 12 5 17 0 24 -2 18 -5z m-66 -9 c-3 -3 -12 -4 -19 -1 -8 3 -5 6 6
6 11 1 17 -2 13 -5z m-50 -10 c-3 -3 -12 -4 -19 -1 -8 3 -5 6 6 6 11 1 17 -2
13 -5z m-50 -10 c-3 -3 -12 -4 -19 -1 -8 3 -5 6 6 6 11 1 17 -2 13 -5z m-40
-10 c-3 -3 -12 -4 -19 -1 -8 3 -5 6 6 6 11 1 17 -2 13 -5z m-257 -89 c-14 -8
-29 -14 -35 -14 -5 0 1 6 15 14 14 8 30 14 35 14 6 0 -1 -6 -15 -14z m-90 -40
c0 -2 -10 -9 -22 -15 -22 -11 -22 -10 -4 4 21 17 26 19 26 11z m-100 -59 c0
-2 -12 -11 -27 -20 l-28 -17 24 20 c23 21 31 25 31 17z m-60 -40 c0 -2 -8 -10
-17 -17 -16 -13 -17 -12 -4 4 13 16 21 21 21 13z m-40 -29 c0 -2 -12 -14 -27
-28 l-28 -24 24 28 c23 25 31 32 31 24z m-60 -50 c0 -2 -17 -19 -37 -38 l-38
-34 34 38 c33 34 41 42 41 34z m-70 -80 c0 -2 -12 -14 -27 -28 l-28 -24 24 28
c23 25 31 32 31 24z m-50 -61 c0 -2 -8 -10 -17 -17 -16 -13 -17 -12 -4 4 13
16 21 21 21 13z m-68 -105 c-20 -38 -38 -68 -40 -66 -4 3 33 78 56 113 28 43
21 21 -16 -47z m-75 -183 c-3 -8 -6 -5 -6 6 -1 11 2 17 5 13 3 -3 4 -12 1 -19z
m-10 -50 c-3 -7 -5 -2 -5 12 0 14 2 19 5 13 2 -7 2 -19 0 -25z m-10 -170 c-2
-29 -3 -8 -3 47 0 55 1 79 3 53 2 -26 2 -71 0 -100z m10 -90 c-3 -8 -6 -5 -6
6 -1 11 2 17 5 13 3 -3 4 -12 1 -19z m20 -80 c-3 -8 -6 -5 -6 6 -1 11 2 17 5
13 3 -3 4 -12 1 -19z m23 -53 c0 -5 -5 -3 -10 5 -5 8 -10 20 -10 25 0 6 5 3
10 -5 5 -8 10 -19 10 -25z m29 -65 c11 -24 11 -24 -3 -6 -9 11 -16 24 -16 30
0 12 5 7 19 -24z m31 -50 c6 -11 8 -20 6 -20 -3 0 -10 9 -16 20 -6 11 -8 20
-6 20 3 0 10 -9 16 -20z m144 -176 c208 -208 521 -345 876 -384 67 -8 180 -11
279 -8 91 2 144 1 116 -3 -86 -12 -325 -9 -439 6 -348 46 -657 191 -856 401
-36 38 -76 85 -89 104 l-22 35 27 -35 c15 -19 64 -71 108 -116z"/>
<path d="M6502 7104 c-28 -17 -49 -23 -63 -19 -14 5 -19 3 -15 -4 4 -5 -7 -17
-24 -26 -81 -42 -130 -111 -130 -186 0 -49 16 -86 56 -129 18 -19 33 -38 34
-42 0 -5 0 -12 0 -18 0 -5 5 -10 11 -10 8 0 8 5 -1 15 -17 20 -12 19 51 -11
30 -15 75 -29 102 -32 26 -2 50 -9 53 -14 3 -5 -6 -7 -20 -4 -14 3 -28 0 -31
-5 -4 -5 3 -9 14 -9 10 0 27 -3 36 -6 9 -4 15 -3 14 2 -4 26 6 32 60 36 41 3
78 14 120 36 34 18 64 32 69 32 4 0 7 3 7 8 0 4 12 23 28 43 16 21 30 55 33
82 4 29 11 44 19 41 6 -3 12 1 12 9 0 8 -7 12 -16 10 -11 -3 -17 3 -18 17 -1
12 -14 37 -28 56 -56 73 -175 125 -288 125 -61 0 -67 2 -50 14 29 23 12 17
-35 -11z"/>
<path d="M6455 7109 c-4 -6 -4 -13 -1 -16 3 -4 6 -1 6 6 0 8 6 11 16 7 8 -3
12 -2 9 4 -8 13 -22 13 -30 -1z"/>
<path d="M6718 7103 c7 -3 16 -2 19 1 4 3 -2 6 -13 5 -11 0 -14 -3 -6 -6z"/>
<path d="M3432 7068 c-32 -54 -741 -1353 -748 -1373 -6 -14 -4 -16 6 -10 9 5
11 4 6 -4 -4 -6 -11 -9 -16 -6 -7 4 -170 -282 -170 -299 0 -4 5 -4 12 0 7 4 8
3 4 -5 -4 -6 -11 -9 -16 -6 -12 8 -63 -93 -54 -107 4 -6 3 -8 -4 -4 -13 8
-126 -200 -116 -216 4 -7 3 -8 -4 -4 -14 8 -56 -70 -46 -86 4 -7 3 -8 -4 -4
-14 8 -76 -110 -66 -126 4 -7 3 -8 -4 -4 -14 8 -56 -70 -46 -86 4 -7 3 -8 -4
-4 -14 8 -56 -70 -46 -86 5 -7 3 -8 -6 -3 -10 6 -12 4 -7 -9 4 -10 3 -15 -3
-11 -12 8 -43 -52 -34 -67 5 -7 3 -8 -6 -3 -10 6 -12 4 -7 -9 5 -11 3 -15 -5
-10 -8 5 -9 2 -5 -10 4 -10 3 -15 -3 -11 -12 8 -63 -92 -54 -107 4 -7 3 -8 -4
-4 -14 8 -46 -50 -36 -66 5 -7 3 -8 -6 -3 -10 6 -12 4 -7 -9 5 -11 3 -15 -5
-10 -8 5 -9 2 -5 -10 4 -10 3 -15 -3 -11 -12 7 -33 -32 -24 -47 5 -7 3 -8 -6
-3 -10 6 -12 4 -7 -9 5 -11 3 -15 -5 -10 -8 5 -9 2 -5 -10 5 -11 3 -15 -5 -10
-8 5 -9 2 -5 -10 4 -10 3 -15 -3 -11 -12 8 -53 -72 -44 -87 4 -7 3 -8 -4 -4
-14 8 -46 -50 -36 -66 5 -7 3 -8 -6 -3 -10 6 -12 4 -7 -9 5 -11 3 -15 -5 -10
-8 5 -9 2 -5 -10 5 -11 3 -15 -5 -10 -8 5 -9 2 -5 -9 4 -10 2 -16 -6 -14 -7 1
-11 -6 -11 -15 1 -10 -1 -16 -5 -14 -9 5 -51 -63 -42 -69 5 -2 330 -5 722 -5
575 -1 715 2 722 12 4 7 45 92 91 188 46 96 136 282 200 414 64 131 116 240
116 241 0 1 57 119 126 261 69 143 143 295 164 339 21 44 88 184 150 310 62
127 120 249 130 271 10 23 23 45 29 48 15 9 14 57 0 53 -6 -1 -156 245 -334
546 -177 301 -326 552 -332 558 -7 7 -17 0 -31 -23z m38 -20 c10 -21 10 -21
-3 -6 -8 10 -18 14 -22 10 -5 -4 -5 -1 -1 6 10 17 14 15 26 -10z m-55 -58 c-9
-16 -18 -30 -21 -30 -2 0 2 14 11 30 9 17 18 30 21 30 2 0 -2 -13 -11 -30z
m110 -35 c16 -27 24 -45 18 -40 -6 6 -23 33 -38 60 -16 28 -24 46 -18 40 6 -5
23 -32 38 -60z m-165 -65 c-6 -11 -13 -20 -16 -20 -2 0 0 9 6 20 6 11 13 20
16 20 2 0 0 -9 -6 -20z m210 -10 c6 -11 8 -20 6 -20 -3 0 -10 9 -16 20 -6 11
-8 20 -6 20 3 0 10 -9 16 -20z m55 -95 c16 -27 24 -45 18 -40 -6 6 -23 33 -38
60 -16 28 -24 46 -18 40 6 -5 23 -32 38 -60z m45 -75 c6 -11 8 -20 6 -20 -3 0
-10 9 -16 20 -6 11 -8 20 -6 20 3 0 10 -9 16 -20z m-420 -20 c-6 -11 -13 -20
-16 -20 -2 0 0 9 6 20 6 11 13 20 16 20 2 0 0 -9 -6 -20z m475 -75 c16 -27 24
-45 18 -40 -6 6 -23 33 -38 60 -16 28 -24 46 -18 40 6 -5 23 -32 38 -60z
m-525 -15 c-6 -11 -13 -20 -16 -20 -2 0 0 9 6 20 6 11 13 20 16 20 2 0 0 -9
-6 -20z m570 -60 c6 -11 8 -20 6 -20 -3 0 -10 9 -16 20 -6 11 -8 20 -6 20 3 0
10 -9 16 -20z m55 -95 c16 -27 24 -45 18 -40 -6 6 -23 33 -38 60 -16 28 -24
46 -18 40 6 -5 23 -32 38 -60z m-745 -65 c-6 -11 -13 -20 -16 -20 -2 0 0 9 6
20 6 11 13 20 16 20 2 0 0 -9 -6 -20z m790 -10 c6 -11 8 -20 6 -20 -3 0 -10 9
-16 20 -6 11 -8 20 -6 20 3 0 10 -9 16 -20z m55 -95 c16 -27 24 -45 18 -40 -6
6 -23 33 -38 60 -16 28 -24 46 -18 40 6 -5 23 -32 38 -60z m-900 5 c-9 -16
-18 -30 -21 -30 -2 0 2 14 11 30 9 17 18 30 21 30 2 0 -2 -13 -11 -30z m945
-80 c6 -11 8 -20 6 -20 -3 0 -10 9 -16 20 -6 11 -8 20 -6 20 3 0 10 -9 16 -20z
m30 -50 c6 -11 8 -20 6 -20 -3 0 -10 9 -16 20 -6 11 -8 20 -6 20 3 0 10 -9 16
-20z m70 -120 c6 -11 8 -20 6 -20 -3 0 -10 9 -16 20 -6 11 -8 20 -6 20 3 0 10
-9 16 -20z m-1210 -50 c-6 -11 -13 -20 -16 -20 -2 0 0 9 6 20 6 11 13 20 16
20 2 0 0 -9 -6 -20z m1240 0 c6 -11 8 -20 6 -20 -3 0 -10 9 -16 20 -6 11 -8
20 -6 20 3 0 10 -9 16 -20z m-1300 -110 c-6 -11 -13 -20 -16 -20 -2 0 0 9 6
20 6 11 13 20 16 20 2 0 0 -9 -6 -20z m1233 -95 c-3 -9 -8 -14 -10 -11 -3 3
-2 9 2 15 9 16 15 13 8 -4z m-1403 -215 c-6 -11 -13 -20 -16 -20 -2 0 0 9 6
20 6 11 13 20 16 20 2 0 0 -9 -6 -20z m-220 -400 c-6 -11 -13 -20 -16 -20 -2
0 0 9 6 20 6 11 13 20 16 20 2 0 0 -9 -6 -20z m1323 -5 c-3 -9 -8 -14 -10 -11
-3 3 -2 9 2 15 9 16 15 13 8 -4z m-1502 -318 c-10 -9 -11 -8 -5 6 3 10 9 15
12 12 3 -3 0 -11 -7 -18z m-211 -387 c-6 -11 -13 -20 -16 -20 -2 0 0 9 6 20 6
11 13 20 16 20 2 0 0 -9 -6 -20z m-170 -310 c-6 -11 -13 -20 -16 -20 -2 0 0 9
6 20 6 11 13 20 16 20 2 0 0 -9 -6 -20z m-47 -85 c-3 -9 -8 -14 -10 -11 -3 3
-2 9 2 15 9 16 15 13 8 -4z m1390 -20 c-3 -9 -8 -14 -10 -11 -3 3 -2 9 2 15 9
16 15 13 8 -4z m-1058 -158 c50 -2 -28 -4 -172 -5 -145 -1 -263 1 -263 6 0 6
211 6 435 -1z"/>
<path d="M6745 7090 c-3 -6 1 -7 9 -4 18 7 21 14 7 14 -6 0 -13 -4 -16 -10z"/>
<path d="M6353 7068 c-15 -17 -15 -18 15 -7 38 13 48 25 21 25 -11 0 -27 -8
-36 -18z"/>
<path d="M6800 7060 c0 -5 6 -10 14 -10 7 0 19 -7 26 -15 7 -8 17 -12 22 -9 9
6 3 19 -10 19 -4 1 -17 6 -29 13 -15 8 -23 9 -23 2z"/>
<path d="M6310 7030 c0 -5 5 -10 11 -10 5 0 7 5 4 10 -3 6 -8 10 -11 10 -2 0
-4 -4 -4 -10z"/>
<path d="M6274 6989 c-19 -22 -19 -22 4 -8 12 8 22 17 22 21 0 12 -6 9 -26
-13z"/>
<path d="M6890 6981 c0 -10 19 -25 25 -20 1 2 -3 10 -11 17 -8 7 -14 8 -14 3z"/>
<path d="M6236 6881 c-3 -5 0 -11 7 -14 8 -3 14 1 14 9 0 16 -13 19 -21 5z"/>
<path d="M6289 6730 c29 -25 51 -32 51 -14 0 3 -4 3 -9 -1 -5 -3 -18 6 -29 20
-11 14 -26 25 -33 25 -8 0 1 -14 20 -30z"/>
<path d="M6384 6659 c-3 -5 6 -9 20 -9 31 0 34 6 6 13 -11 3 -23 1 -26 -4z"/>
<path d="M6460 6630 c0 -5 4 -10 9 -10 5 0 16 -3 25 -6 9 -3 16 -1 16 6 0 6
-4 9 -9 5 -5 -3 -12 -1 -16 5 -8 13 -25 13 -25 0z"/>
<path d="M6655 6619 c-4 -6 -4 -13 -1 -16 3 -4 6 -2 6 3 0 5 12 11 27 12 38 3
42 12 5 12 -17 0 -34 -5 -37 -11z"/>
<path d="M4231 5762 c4 -26 -4 -44 -128 -300 -63 -130 -130 -268 -148 -307
-18 -38 -72 -151 -120 -250 -48 -99 -113 -234 -145 -300 -32 -66 -103 -214
-159 -329 -69 -143 -100 -216 -96 -230 4 -14 3 -17 -3 -8 -8 12 -20 -9 -110
-190 -2 -5 458 -8 1022 -8 564 0 1026 2 1026 5 0 7 -209 366 -679 1163 -237
403 -431 739 -431 746 0 8 -7 17 -16 20 -11 4 -14 1 -13 -12z m39 -73 c15 -28
5 -23 -15 7 -9 15 -12 23 -6 20 6 -4 16 -16 21 -27z m30 -49 c6 -11 8 -20 6
-20 -3 0 -10 9 -16 20 -6 11 -8 20 -6 20 3 0 10 -9 16 -20z m30 -50 c6 -11 8
-20 6 -20 -3 0 -10 9 -16 20 -6 11 -8 20 -6 20 3 0 10 -9 16 -20z m40 -70 c6
-11 8 -20 6 -20 -3 0 -10 9 -16 20 -6 11 -8 20 -6 20 3 0 10 -9 16 -20z m30
-50 c6 -11 8 -20 6 -20 -3 0 -10 9 -16 20 -6 11 -8 20 -6 20 3 0 10 -9 16 -20z
m30 -50 c6 -11 8 -20 6 -20 -3 0 -10 9 -16 20 -6 11 -8 20 -6 20 3 0 10 -9 16
-20z m40 -70 c6 -11 8 -20 6 -20 -3 0 -10 9 -16 20 -6 11 -8 20 -6 20 3 0 10
-9 16 -20z m30 -50 c6 -11 8 -20 6 -20 -3 0 -10 9 -16 20 -6 11 -8 20 -6 20 3
0 10 -9 16 -20z m30 -50 c6 -11 8 -20 6 -20 -3 0 -10 9 -16 20 -6 11 -8 20 -6
20 3 0 10 -9 16 -20z m40 -70 c6 -11 8 -20 6 -20 -3 0 -10 9 -16 20 -6 11 -8
20 -6 20 3 0 10 -9 16 -20z m30 -50 c6 -11 8 -20 6 -20 -3 0 -10 9 -16 20 -6
11 -8 20 -6 20 3 0 10 -9 16 -20z m35 -60 c9 -16 13 -30 11 -30 -3 0 -12 14
-21 30 -9 17 -13 30 -11 30 3 0 12 -13 21 -30z m35 -60 c6 -11 8 -20 6 -20 -3
0 -10 9 -16 20 -6 11 -8 20 -6 20 3 0 10 -9 16 -20z m30 -50 c6 -11 8 -20 6
-20 -3 0 -10 9 -16 20 -6 11 -8 20 -6 20 3 0 10 -9 16 -20z m35 -60 c9 -16 13
-30 11 -30 -3 0 -12 14 -21 30 -9 17 -13 30 -11 30 3 0 12 -13 21 -30z m35
-60 c6 -11 8 -20 6 -20 -3 0 -10 9 -16 20 -6 11 -8 20 -6 20 3 0 10 -9 16 -20z
m30 -50 c6 -11 8 -20 6 -20 -3 0 -10 9 -16 20 -6 11 -8 20 -6 20 3 0 10 -9 16
-20z m35 -60 c9 -16 13 -30 11 -30 -3 0 -12 14 -21 30 -9 17 -13 30 -11 30 3
0 12 -13 21 -30z m35 -60 c6 -11 8 -20 6 -20 -3 0 -10 9 -16 20 -6 11 -8 20
-6 20 3 0 10 -9 16 -20z m30 -50 c6 -11 8 -20 6 -20 -3 0 -10 9 -16 20 -6 11
-8 20 -6 20 3 0 10 -9 16 -20z m35 -60 c9 -16 13 -30 11 -30 -3 0 -12 14 -21
30 -9 17 -13 30 -11 30 3 0 12 -13 21 -30z m35 -60 c6 -11 8 -20 6 -20 -3 0
-10 9 -16 20 -6 11 -8 20 -6 20 3 0 10 -9 16 -20z m30 -50 c6 -11 8 -20 6 -20
-3 0 -10 9 -16 20 -6 11 -8 20 -6 20 3 0 10 -9 16 -20z m35 -60 c9 -16 13 -30
11 -30 -3 0 -12 14 -21 30 -9 17 -13 30 -11 30 3 0 12 -13 21 -30z m-1434 -13
c-10 -9 -11 -8 -5 6 3 10 9 15 12 12 3 -3 0 -11 -7 -18z m1499 -97 c6 -11 8
-20 6 -20 -3 0 -10 9 -16 20 -6 11 -8 20 -6 20 3 0 10 -9 16 -20z m30 -50 c6
-11 8 -20 6 -20 -3 0 -10 9 -16 20 -6 11 -8 20 -6 20 3 0 10 -9 16 -20z m70
-120 c6 -11 8 -20 6 -20 -3 0 -10 9 -16 20 -6 11 -8 20 -6 20 3 0 10 -9 16
-20z m30 -50 c6 -11 8 -20 6 -20 -3 0 -10 9 -16 20 -6 11 -8 20 -6 20 3 0 10
-9 16 -20z m30 -50 c6 -11 8 -20 6 -20 -3 0 -10 9 -16 20 -6 11 -8 20 -6 20 3
0 10 -9 16 -20z m-1837 -5 c-3 -9 -8 -14 -10 -11 -3 3 -2 9 2 15 9 16 15 13 8
-4z m1891 -86 c20 -33 36 -62 36 -65 0 -2 -44 -3 -97 -2 l-98 2 92 3 93 4 -24
37 c-30 49 -48 82 -43 82 3 0 21 -27 41 -61z m-1488 -57 c-253 -1 -463 1 -467
5 -5 5 202 6 459 3 l467 -5 -459 -3z"/>
<path d="M6452 5730 c-40 -5 -75 -10 -78 -13 -2 -2 96 -3 218 -1 l223 2 -210
-7 c-116 -4 -216 -11 -223 -15 -9 -6 -12 -214 -12 -935 l0 -928 88 -13 c126
-19 404 -16 527 5 300 52 550 166 725 331 96 91 152 165 200 266 57 120 74
193 74 323 0 130 -16 198 -80 332 -207 434 -836 717 -1452 653z m540 -45 c79
-19 37 -16 -77 5 -78 15 -86 18 -38 14 34 -3 85 -12 115 -19z m204 -55 c45
-15 94 -35 110 -45 16 -9 20 -13 9 -9 -11 4 -76 27 -145 51 -69 24 -109 40
-90 37 19 -3 72 -19 116 -34z m196 -81 c284 -145 490 -375 559 -624 25 -90 30
-246 10 -327 -13 -55 -51 -161 -57 -156 -1 2 8 34 21 71 62 170 48 382 -37
551 -91 182 -296 377 -495 473 -48 23 -62 33 -48 33 3 0 24 -9 47 -21z m482
-1171 c-45 -87 -157 -209 -269 -293 -72 -54 -223 -133 -323 -169 -114 -40
-109 -30 6 14 247 94 452 248 559 423 39 63 53 76 27 25z m-727 -504 c-3 -3
-12 -4 -19 -1 -8 3 -5 6 6 6 11 1 17 -2 13 -5z m-40 -10 c-3 -3 -12 -4 -19 -1
-8 3 -5 6 6 6 11 1 17 -2 13 -5z m-97 -20 c-36 -7 -81 -13 -100 -12 -21 0 -5
5 40 13 101 16 141 16 60 -1z m-325 -14 l190 -8 -205 3 c-113 2 -221 9 -240
14 -32 9 -30 10 15 4 28 -3 136 -9 240 -13z"/>
<path d="M5772 4294 c-28 -17 -49 -23 -63 -19 -14 5 -19 3 -15 -4 4 -5 -7 -17
-24 -26 -81 -42 -130 -111 -130 -186 0 -49 16 -86 56 -129 18 -19 33 -38 34
-42 0 -5 0 -12 0 -18 0 -5 5 -10 11 -10 8 0 8 5 -1 15 -17 20 -12 19 51 -11
30 -15 75 -29 102 -32 26 -2 50 -9 53 -14 3 -5 -6 -7 -20 -4 -14 3 -28 0 -31
-5 -4 -5 3 -9 14 -9 10 0 27 -3 36 -6 9 -4 15 -3 14 2 -4 26 6 32 59 36 123 9
245 103 258 198 4 32 10 47 19 44 6 -3 12 1 12 9 0 8 -7 12 -16 10 -11 -3 -17
3 -18 17 -1 12 -14 37 -28 56 -56 73 -175 125 -288 125 -61 0 -67 2 -50 14 29
23 12 17 -35 -11z"/>
<path d="M5725 4299 c-4 -6 -4 -13 -1 -16 3 -4 6 -1 6 6 0 8 6 11 16 7 8 -3
12 -2 9 4 -8 13 -22 13 -30 -1z"/>
<path d="M5988 4293 c7 -3 16 -2 19 1 4 3 -2 6 -13 5 -11 0 -14 -3 -6 -6z"/>
<path d="M6015 4280 c-3 -6 1 -7 9 -4 18 7 21 14 7 14 -6 0 -13 -4 -16 -10z"/>
<path d="M5623 4258 c-15 -17 -15 -18 15 -7 38 13 48 25 21 25 -11 0 -27 -8
-36 -18z"/>
<path d="M6070 4250 c0 -5 6 -10 14 -10 7 0 19 -7 26 -15 7 -8 17 -12 22 -9 9
6 3 19 -10 19 -4 1 -17 6 -29 13 -15 8 -23 9 -23 2z"/>
<path d="M5580 4220 c0 -5 5 -10 11 -10 5 0 7 5 4 10 -3 6 -8 10 -11 10 -2 0
-4 -4 -4 -10z"/>
<path d="M5544 4179 c-19 -22 -19 -22 4 -8 12 8 22 17 22 21 0 12 -6 9 -26
-13z"/>
<path d="M6160 4171 c0 -10 19 -25 25 -20 1 2 -3 10 -11 17 -8 7 -14 8 -14 3z"/>
<path d="M5506 4071 c-3 -5 0 -11 7 -14 8 -3 14 1 14 9 0 16 -13 19 -21 5z"/>
<path d="M5559 3920 c29 -25 51 -32 51 -14 0 3 -4 3 -9 -1 -5 -3 -18 6 -29 20
-11 14 -26 25 -33 25 -8 0 1 -14 20 -30z"/>
<path d="M6105 3900 c-3 -6 1 -7 9 -4 18 7 21 14 7 14 -6 0 -13 -4 -16 -10z"/>
<path d="M6217 3874 c42 -18 113 -34 113 -25 0 8 -111 42 -132 40 -7 0 1 -7
19 -15z"/>
<path d="M5654 3849 c-3 -5 6 -9 20 -9 31 0 34 6 6 13 -11 3 -23 1 -26 -4z"/>
<path d="M5730 3820 c0 -5 4 -10 9 -10 5 0 16 -3 25 -6 9 -3 16 -1 16 6 0 6
-4 9 -9 5 -5 -3 -12 -1 -16 5 -8 13 -25 13 -25 0z"/>
<path d="M5925 3809 c-4 -6 -4 -13 -1 -16 3 -4 6 -2 6 3 0 5 12 11 27 12 38 3
42 12 5 12 -17 0 -34 -5 -37 -11z"/>
</g>
</svg>
